<svg xmlns="http://www.w3.org/2000/svg" xmlns:xlink="http://www.w3.org/1999/xlink" version="1.1" x="0px" y="0px" viewBox="0 0 100 100" style="enable-background:new 0 0 100 100;" xml:space="preserve"><g><path d="M70.662,64.397c0.008-0.184-0.007-0.365-0.039-0.544c-0.53-6.584-3.3-13.02-8.326-18.045   c-0.441-0.441-0.898-0.86-1.362-1.269c-0.039-0.038-0.082-0.071-0.123-0.106c-5.242-4.566-11.872-7.066-18.89-7.066   c-5.418,0-10.605,1.492-15.102,4.27c-0.016,0.009-0.031,0.021-0.047,0.03c-1.873,1.162-3.628,2.543-5.226,4.141   c-1.559,1.559-2.893,3.257-4.019,5.049c-0.065,0.093-0.128,0.186-0.179,0.287c-4.08,6.666-5.206,14.64-3.372,22.029   c0.016,0.092,0.046,0.181,0.073,0.271c1.075,4.156,3.091,8.114,6.045,11.539c0.046,0.059,0.095,0.115,0.146,0.17   c0.419,0.479,0.85,0.951,1.307,1.407c4.991,4.992,11.492,7.919,18.471,8.372c0.002,0,0.004,0.001,0.006,0.001   c0.001,0,0.001,0,0.002,0C40.654,94.972,41.286,95,41.921,95c7.696,0,14.933-2.998,20.375-8.441c2.65-2.65,4.667-5.695,6.067-8.944   c0.041-0.08,0.074-0.163,0.107-0.247C70.203,73.243,70.932,68.796,70.662,64.397z M64.207,74.25l-2.282-4.473l3.791-3.792   c0.023,2.796-0.46,5.587-1.412,8.249L64.207,74.25z M64.982,60.365c-0.525,0.074-1.027,0.311-1.422,0.705l-5.856,5.856L52.888,66   l-4.257-8.348l2.138-3.855l8.233-1.302c0.675-0.107,1.257-0.481,1.638-1.01C62.749,54.167,64.189,57.199,64.982,60.365z    M49.966,88.613C47.419,89.525,44.707,90,41.921,90c-0.113,0-0.225-0.007-0.338-0.008l-0.091-0.179l3.76-3.76l4.736,2.416   L49.966,88.613z M19.261,73.439l0.416-0.416l4.731,2.413l-0.831,5.253l-0.464,0.073C21.374,78.519,20.089,76.039,19.261,73.439z    M19.688,57.704c0.462,0.447,1.076,0.714,1.729,0.714c0.13,0,0.261-0.01,0.393-0.031l8.189-1.3l3.057,3.058l-1.449,9.163   l-3.93,2.18l-7.346-3.745c-0.684-0.348-1.469-0.351-2.142-0.055C17.976,64.313,18.473,60.906,19.688,57.704z M28.233,83.265   l1.302-8.233l3.855-2.139l8.226,4.193l0.743,4.79l-5.686,5.686c-0.459,0.459-0.705,1.064-0.726,1.682   c-3.171-0.816-6.135-2.286-8.735-4.336C27.747,84.528,28.126,83.944,28.233,83.265z M42.945,72.152l-6.224-3.173l1.092-6.904   l6.905-1.092l3.173,6.223L42.945,72.152z M56.503,47.358l-0.076,0.483l-5.253,0.831l-2.412-4.731L49.2,43.5   C51.83,44.341,54.296,45.641,56.503,47.358z M43.44,42.42c-0.31,0.68-0.312,1.479,0.042,2.172l3.745,7.345l-2.18,3.93l-9.163,1.45   l-3.057-3.057l1.299-8.189c0.127-0.8-0.143-1.593-0.69-2.147c2.675-1.019,5.538-1.557,8.486-1.557   C42.43,42.367,42.936,42.388,43.44,42.42z M28.195,46.722l0.707,0.36l-0.833,5.25l-5.25,0.833l-0.349-0.684   c0.774-1.098,1.628-2.156,2.61-3.137C26.053,48.371,27.097,47.5,28.195,46.722z M55.028,86.075   c-0.226-0.52-0.621-0.964-1.151-1.234l-7.613-3.884l-0.679-4.375l6.637-6.637l4.669,0.898c0.063,0.152,0.116,0.297,0.201,0.462   l3.487,6.835c0.27,0.53,0.72,0.909,1.24,1.135c-0.873,1.326-1.891,2.584-3.057,3.749C57.609,84.177,56.357,85.195,55.028,86.075z"/><path d="M63.018,15.578L47.212,31.384c-0.977,0.976-0.977,2.559,0,3.535c0.488,0.488,1.128,0.732,1.768,0.732   s1.28-0.244,1.768-0.732l15.806-15.805c0.977-0.977,0.977-2.56,0-3.536C65.577,14.602,63.994,14.603,63.018,15.578z"/><path d="M72.863,5.732l-4.549,4.55c-0.977,0.976-0.977,2.559,0,3.535c0.488,0.488,1.128,0.732,1.768,0.732s1.28-0.244,1.768-0.732   l4.55-4.55c0.976-0.977,0.976-2.56,0-3.536C75.422,4.756,73.84,4.757,72.863,5.732z"/><path d="M82.627,47.916l-9.231,9.231c-0.977,0.976-0.977,2.559,0,3.535c0.488,0.488,1.128,0.732,1.768,0.732   s1.28-0.244,1.768-0.732l9.231-9.231c0.977-0.976,0.977-2.559,0-3.535C85.187,46.939,83.603,46.939,82.627,47.916z"/><path d="M64.564,44.535c0.49,0.5,1.138,0.75,1.786,0.75c0.631,0,1.263-0.237,1.75-0.714c0,0,2.498-2.446,4.829-4.759   c0.98-0.973,0.986-2.555,0.014-3.536c-0.973-0.98-2.555-0.986-3.536-0.014c-2.32,2.301-4.805,4.735-4.807,4.737   C63.614,41.965,63.598,43.548,64.564,44.535z"/><path d="M74.56,34.649c0.488,0.487,1.127,0.73,1.766,0.73c0.641,0,1.282-0.245,1.77-0.734c3.613-3.623,6.595-6.733,6.625-6.764   c0.955-0.997,0.921-2.58-0.076-3.535c-0.997-0.956-2.581-0.921-3.535,0.076c-0.029,0.031-2.979,3.107-6.554,6.692   C73.581,32.091,73.583,33.674,74.56,34.649z"/></g></svg>
