<svg xmlns="http://www.w3.org/2000/svg" viewBox="0 0 847 847" fill-rule="evenodd" clip-rule="evenodd" shape-rendering="geometricPrecision" text-rendering="geometricPrecision" image-rendering="optimizeQuality"><path d="M423 22c222 0 401 180 401 401 0 222-179 401-401 401-221 0-401-179-401-401C22 202 202 22 423 22zm262 121l-14 12c20 37 37 80 37 123 26 36 55 72 78 110 6-3 12-5 19-8-11-91-53-175-120-237zm-171-40c50 3 100 15 145 39l13-11c-69-58-155-90-245-91l-4 5c33 14 65 32 91 58zm-311 92c5-29 13-63 31-88h-28C134 157 80 230 55 315l38-5c28-43 65-89 110-115zm-64 255c-26-36-41-78-48-122l-41 5c-20 86-10 179 28 258 17 0 34-2 50-5-1-44 6-92 11-136zm319 355c24-9 47-20 69-33-2-20-3-39-3-58-47-4-95-14-136-36-36 10-88 28-125 30 0 23 3 46 10 68 58 25 122 35 185 29zm296-187c0-18-2-42-11-57l-105 33c-21 43-62 84-97 116 0 19 1 38 3 57 19-1 39-2 58-4 64-34 116-82 152-145zM407 58c-52 7-103 23-149 49-23 19-33 59-38 88 34 16 67 34 98 54 46-22 95-37 146-41 10-32 21-65 36-95-27-25-59-43-93-55zm61 166c-50 5-98 19-143 41-13 47-22 96-30 144 36 35 72 69 108 103 47-13 94-27 140-44 14-47 26-95 35-143-29-42-66-75-110-101zM156 455c-5 42-13 94-11 135 34 37 71 72 113 101 27 0 90-20 122-28-5-43 4-96 12-138-37-34-73-68-108-103-43 11-85 22-128 33zm404 18c25 34 52 69 75 104l106-34c23-45 32-94 33-142-17-32-55-78-78-110-34 11-68 25-101 38-10 48-21 97-35 144z"/></svg>
