<svg xmlns="http://www.w3.org/2000/svg" xmlns:xlink="http://www.w3.org/1999/xlink" version="1.1" x="0px" y="0px" viewBox="0 0 100 100" enable-background="new 0 0 100 116" xml:space="preserve"><g><path fill="#FFFFFF" d="M92.711,0.025H7.288C3.263,0.025,0,3.288,0,7.313v101.375c0,4.024,3.263,7.287,7.289,7.287h85.423   c4.025,0,7.289-3.263,7.289-7.287V7.313C100,3.288,96.736,0.025,92.711,0.025z M96.021,104.654c0,3.705-3.004,6.709-6.709,6.709   H10.687c-3.705,0-6.708-3.004-6.708-6.709V11.346c0-3.705,3.003-6.708,6.708-6.708h78.626c3.705,0,6.709,3.003,6.709,6.708V104.654   z"/><rect fill="#FFFFFF" x="27.067" y="54.25" width="56.894" height="7.5"/><rect fill="#FFFFFF" x="16.038" y="54.25" width="7.5" height="7.5"/><rect fill="#FFFFFF" x="27.067" y="36.852" width="56.894" height="7.5"/><rect fill="#FFFFFF" x="16.038" y="36.852" width="7.5" height="7.5"/><rect fill="#FFFFFF" x="27.067" y="19.454" width="56.894" height="7.5"/><rect fill="#FFFFFF" x="16.038" y="19.454" width="7.5" height="7.5"/><rect fill="#FFFFFF" x="27.067" y="71.648" width="56.894" height="7.5"/><rect fill="#FFFFFF" x="16.038" y="71.648" width="7.5" height="7.5"/><rect fill="#FFFFFF" x="27.067" y="89.047" width="56.894" height="7.499"/><rect fill="#FFFFFF" x="16.038" y="89.047" width="7.5" height="7.499"/></g></svg>