<svg xmlns="http://www.w3.org/2000/svg" xmlns:xlink="http://www.w3.org/1999/xlink" version="1.1" x="0px" y="0px" viewBox="0 0 100 100" enable-background="new 0 0 100 100" xml:space="preserve"><g><path fill="none" d="M47.161,52.955c9.166,0,16.713-10.123,17.692-23.133c0.121-0.839,0.187-1.699,0.199-2.572l-2.861,3.287   c1.578-3.496-4.045-12.392-4.045-12.392c-9.474,6.852-23.56,0-23.56,0c-4.252,1.677-2.239,13.632-2.238,13.631   c-1.06-0.741-2.035-1.125-2.828-1.324C30.69,43.157,38.142,52.955,47.161,52.955z"/><path fill="#000000" d="M84.807,67.818c0.112,0,0.225,0.007,0.336,0.009c-4.115-7.729-11.924-13.197-21.074-14.032   c-0.106,4.855-7.305,8.775-16.171,8.775c-8.867,0-16.064-3.92-16.172-8.775C18.163,55.034,7.54,66.438,7.54,80.322   C7.54,95.034,19.467,95,34.18,95l35.304-0.092c-1.621-2.69-2.555-5.844-2.555-9.213C66.93,75.82,74.934,67.818,84.807,67.818z"/><path fill="#000000" d="M27.008,29.715c0.015,0.192,0.03,0.384,0.048,0.575c1.286,14.546,9.796,25.784,20.105,25.784   c10.44,0,19.038-11.531,20.151-26.351c0.153-1.064,0.233-2.155,0.233-3.264s-0.081-2.2-0.233-3.265C65.816,12.892,57.363,5,47.16,5   c-10.208,0-18.662,7.897-20.152,18.202c-0.153,1.062-0.233,2.15-0.233,3.256c0,0.45,0.018,0.895,0.043,1.338   C26.854,28.444,26.917,29.084,27.008,29.715z M34.587,18.145c0,0,14.086,6.852,23.56,0c0,0,5.623,8.896,4.045,12.392l2.861-3.287   c-0.013,0.873-0.078,1.733-0.199,2.572c-0.979,13.01-8.526,23.133-17.692,23.133c-9.019,0-16.471-9.798-17.64-22.503   c0.793,0.199,1.768,0.583,2.828,1.324C32.348,31.777,30.335,19.822,34.587,18.145z"/><polygon fill="#000000" points="92.459,81.218 90.148,78.906 82.411,86.645 79.459,83.693 77.148,86.004 82.409,91.264    82.412,91.261 82.414,91.263  "/></g></svg>
