<svg xmlns="http://www.w3.org/2000/svg" xmlns:xlink="http://www.w3.org/1999/xlink" version="1.1" x="0px" y="0px" viewBox="0 0 100 100" enable-background="new 0 0 100 100" xml:space="preserve"><g><path fill="none" d="M47.112,52.956c9.167,0,16.714-10.123,17.692-23.133c0.121-0.839,0.188-1.7,0.201-2.572l-2.861,3.287   c1.578-3.496-4.045-12.392-4.045-12.392c-9.474,6.852-23.561,0-23.561,0c-4.252,1.677-2.239,13.632-2.238,13.632   c-1.061-0.741-2.034-1.125-2.828-1.324C30.642,43.158,38.094,52.956,47.112,52.956z"/><circle fill="none" cx="84.744" cy="84.703" r="2.159"/><path fill="#FFFFFF" d="M84.76,67.818c0.113,0,0.225,0.007,0.336,0.009c-4.115-7.73-11.924-13.197-21.074-14.032   c-0.107,4.856-7.305,8.775-16.172,8.775s-16.064-3.919-16.171-8.775C18.116,55.034,7.492,66.437,7.492,80.322   C7.492,95.034,19.419,95,34.132,95l35.306-0.092c-1.621-2.69-2.555-5.843-2.555-9.213C66.883,75.821,74.887,67.818,84.76,67.818z"/><path fill="#FFFFFF" d="M26.96,29.715c0.015,0.192,0.031,0.384,0.048,0.575c1.286,14.546,9.796,25.784,20.105,25.784   c10.441,0,19.039-11.531,20.152-26.351c0.154-1.064,0.234-2.155,0.234-3.264s-0.082-2.2-0.234-3.265   C65.77,12.892,57.316,5,47.112,5C36.905,5,28.45,12.897,26.96,23.202c-0.153,1.062-0.233,2.15-0.233,3.256   c0,0.45,0.018,0.895,0.043,1.338C26.808,28.444,26.869,29.084,26.96,29.715z M34.539,18.145c0,0,14.087,6.852,23.561,0   c0,0,5.623,8.896,4.045,12.392l2.861-3.287c-0.014,0.873-0.08,1.733-0.201,2.572c-0.979,13.01-8.525,23.133-17.692,23.133   c-9.019,0-16.471-9.798-17.64-22.503c0.794,0.199,1.768,0.583,2.828,1.324C32.3,31.777,30.287,19.822,34.539,18.145z"/><path fill="#FFFFFF" d="M91.746,83.167h-0.865c-0.002,0-0.002-0.013-0.002-0.015c-0.15-0.598-0.389-1.173-0.697-1.688l0.604-0.604   c0.299-0.3,0.297-0.785,0-1.085l-1.107-1.106c-0.145-0.144-0.34-0.225-0.543-0.225c-0.205,0-0.398,0.081-0.545,0.225l-0.602,0.604   c-0.512-0.307-1.07-0.544-1.664-0.695c-0.004,0-0.006-0.443-0.01-0.867c-0.002-0.422-0.348-0.762-0.77-0.762h-1.561   c-0.207,0-0.4,0.08-0.545,0.225c-0.148,0.146-0.229,0.341-0.227,0.547l0.012,0.839c-0.617,0.13-1.193,0.394-1.723,0.711   l-0.601-0.601c-0.146-0.144-0.34-0.225-0.544-0.225s-0.398,0.08-0.544,0.225l-1.108,1.106c-0.298,0.302-0.298,0.786,0,1.086   l0.604,0.603c-0.308,0.517-0.546,1.082-0.695,1.68c-0.002,0.002-0.001,0.002-0.001,0.002h-0.838c-0.423,0-0.764,0.344-0.764,0.768   v1.566c0,0.423,0.337,0.746,0.76,0.746h0.83c0.001,0.006,0.002,0.012,0.004,0.018c0.15,0.607,0.391,1.178,0.702,1.701l-0.603,0.602   c-0.143,0.145-0.223,0.338-0.223,0.543c0,0.203,0.08,0.398,0.223,0.543l1.109,1.105c0.145,0.145,0.339,0.225,0.543,0.225   s0.398-0.08,0.544-0.225l0.599-0.604c0.531,0.314,1.107,0.557,1.721,0.707l-0.01,0.828c-0.002,0.205,0.078,0.4,0.225,0.547   s0.34,0.227,0.545,0.227h1.563c0.422,0,0.766-0.338,0.768-0.76c0.006-0.418,0.008-0.855,0.01-0.855   c0.594-0.152,1.154-0.385,1.666-0.693l0.602,0.604c0.301,0.299,0.785,0.299,1.086,0l1.104-1.107c0.303-0.299,0.303-0.787,0-1.086   l-0.6-0.605c0.313-0.523,0.551-1.102,0.703-1.707c0-0.002,0.002-0.004,0.002-0.008h0.859c0.424,0,0.764-0.321,0.764-0.745h0.002   v-1.565C92.508,83.489,92.17,83.167,91.746,83.167z M84.744,86.862c-1.193,0-2.16-0.967-2.16-2.16c0-1.191,0.967-2.158,2.16-2.158   c1.191,0,2.158,0.967,2.158,2.158C86.902,85.896,85.936,86.862,84.744,86.862z"/></g></svg>
