<svg xmlns="http://www.w3.org/2000/svg" xmlns:xlink="http://www.w3.org/1999/xlink" version="1.1" x="0px" y="0px" viewBox="0 0 100 100" enable-background="new 0 0 100 100" xml:space="preserve"><g><path fill="none" d="M50.318,52.956c9.166,0,16.714-10.123,17.692-23.133c0.121-0.839,0.188-1.7,0.2-2.572l-2.861,3.287   c1.578-3.496-4.045-12.392-4.045-12.392c-9.474,6.852-23.56,0-23.56,0c-4.252,1.677-2.239,13.632-2.238,13.632   c-1.061-0.741-2.034-1.125-2.828-1.324C33.848,43.158,41.3,52.956,50.318,52.956z"/><path fill="#000000" d="M87.965,67.818c0.113,0,0.225,0.007,0.337,0.009c-4.116-7.73-11.924-13.197-21.074-14.032   c-0.107,4.856-7.305,8.775-16.172,8.775s-16.064-3.919-16.171-8.775c-13.563,1.239-24.187,12.642-24.187,26.527   C10.698,95.034,22.625,95,37.338,95l35.306-0.092c-1.621-2.69-2.555-5.843-2.555-9.213C70.089,75.821,78.092,67.818,87.965,67.818z   "/><path fill="#000000" d="M30.166,29.715c0.015,0.192,0.031,0.384,0.048,0.575C31.5,44.836,40.01,56.074,50.319,56.074   c10.441,0,19.038-11.531,20.151-26.351c0.154-1.064,0.234-2.155,0.234-3.264s-0.081-2.2-0.234-3.265   C68.976,12.892,60.522,5,50.318,5c-10.207,0-18.662,7.897-20.152,18.202c-0.153,1.062-0.233,2.15-0.233,3.256   c0,0.45,0.018,0.895,0.043,1.338C30.014,28.444,30.075,29.084,30.166,29.715z M37.745,18.145c0,0,14.086,6.852,23.56,0   c0,0,5.623,8.896,4.045,12.392l2.861-3.287c-0.013,0.873-0.079,1.733-0.2,2.572c-0.979,13.01-8.526,23.133-17.692,23.133   c-9.019,0-16.471-9.798-17.64-22.503c0.794,0.199,1.768,0.583,2.828,1.324C35.506,31.777,33.493,19.822,37.745,18.145z"/><rect x="86.033" y="81.038" fill="#000000" width="3.269" height="11.993"/><rect x="86.033" y="76.146" fill="#000000" width="3.269" height="2.892"/></g></svg>
