<svg xmlns="http://www.w3.org/2000/svg" xmlns:xlink="http://www.w3.org/1999/xlink" version="1.1" x="0px" y="0px" viewBox="0 0 100 100" enable-background="new 0 0 100 100" xml:space="preserve"><g><path fill="none" d="M47.436,52.956c9.166,0,16.714-10.123,17.692-23.133c0.121-0.839,0.188-1.7,0.2-2.572l-2.861,3.287   c1.578-3.496-4.045-12.392-4.045-12.392c-9.474,6.852-23.561,0-23.561,0c-4.252,1.677-2.238,13.632-2.237,13.632   c-1.061-0.741-2.035-1.125-2.828-1.324C30.965,43.158,38.416,52.956,47.436,52.956z"/><path fill="#000000" d="M85.082,67.818c0.113,0,0.225,0.007,0.337,0.009c-4.116-7.73-11.924-13.197-21.074-14.032   c-0.107,4.856-7.305,8.775-16.172,8.775s-16.064-3.919-16.172-8.775C18.438,55.034,7.814,66.437,7.814,80.322   C7.814,95.034,19.742,95,34.455,95l35.306-0.092c-1.621-2.69-2.555-5.843-2.555-9.213C67.206,75.821,75.209,67.818,85.082,67.818z"/><path fill="#000000" d="M27.283,29.715c0.015,0.192,0.03,0.384,0.048,0.575c1.286,14.546,9.796,25.784,20.105,25.784   c10.441,0,19.038-11.531,20.151-26.351c0.154-1.064,0.234-2.155,0.234-3.264s-0.081-2.2-0.234-3.265   C66.093,12.892,57.64,5,47.436,5c-10.208,0-18.662,7.897-20.152,18.202c-0.154,1.062-0.233,2.15-0.233,3.256   c0,0.45,0.017,0.895,0.043,1.338C27.13,28.444,27.192,29.084,27.283,29.715z M34.861,18.145c0,0,14.087,6.852,23.561,0   c0,0,5.623,8.896,4.045,12.392l2.861-3.287c-0.013,0.873-0.079,1.733-0.2,2.572c-0.979,13.01-8.526,23.133-17.692,23.133   c-9.02,0-16.471-9.798-17.64-22.503c0.793,0.199,1.768,0.583,2.828,1.324C32.623,31.777,30.609,19.822,34.861,18.145z"/><rect x="77.979" y="84.062" fill="#000000" width="14.206" height="3.269"/></g></svg>
