<svg xmlns="http://www.w3.org/2000/svg" xmlns:xlink="http://www.w3.org/1999/xlink" version="1.1" x="0px" y="0px" viewBox="0 0 100 100" enable-background="new 0 0 100 100" xml:space="preserve"><g><path fill="none" d="M47.632,52.956c9.166,0,16.714-10.123,17.693-23.133c0.121-0.839,0.188-1.7,0.199-2.572l-2.861,3.287   c1.578-3.496-4.045-12.392-4.045-12.392c-9.473,6.852-23.56,0-23.56,0c-4.252,1.677-2.239,13.632-2.238,13.632   c-1.061-0.741-2.035-1.125-2.828-1.324C31.162,43.158,38.613,52.956,47.632,52.956z"/><path fill="none" d="M85.512,77.941c-1.604,0-2.906,1.297-2.925,2.896h5.85C88.418,79.238,87.115,77.941,85.512,77.941z"/><path fill="#000000" d="M85.278,67.818c0.113,0,0.225,0.007,0.338,0.009c-4.117-7.73-11.924-13.197-21.074-14.032   c-0.107,4.856-7.305,8.775-16.172,8.775c-8.867,0-16.064-3.919-16.171-8.775C18.636,55.034,8.012,66.437,8.012,80.322   C8.012,95.034,19.939,95,34.652,95l35.306-0.092c-1.621-2.69-2.555-5.843-2.555-9.213C67.403,75.821,75.405,67.818,85.278,67.818z"/><path fill="#000000" d="M27.48,29.715c0.015,0.192,0.031,0.384,0.048,0.575c1.286,14.546,9.796,25.784,20.105,25.784   c10.442,0,19.038-11.531,20.151-26.351c0.154-1.064,0.234-2.155,0.234-3.264s-0.08-2.2-0.234-3.265C66.29,12.892,57.837,5,47.632,5   C37.425,5,28.97,12.897,27.48,23.202c-0.154,1.062-0.233,2.15-0.233,3.256c0,0.45,0.017,0.895,0.043,1.338   C27.327,28.444,27.389,29.084,27.48,29.715z M35.059,18.145c0,0,14.087,6.852,23.56,0c0,0,5.623,8.896,4.045,12.392l2.861-3.287   c-0.012,0.873-0.078,1.733-0.199,2.572c-0.979,13.01-8.527,23.133-17.693,23.133c-9.019,0-16.471-9.798-17.64-22.503   c0.793,0.199,1.768,0.583,2.828,1.324C32.82,31.777,30.807,19.822,35.059,18.145z"/><path fill="#000000" d="M90.437,80.837c-0.019-2.701-2.219-4.896-4.925-4.896s-4.906,2.194-4.925,4.896h-1.516v9.986h12.917v-9.986   H90.437z M85.512,77.941c1.604,0,2.906,1.297,2.925,2.896h-5.85C82.605,79.238,83.908,77.941,85.512,77.941z"/></g></svg>
