<svg xmlns="http://www.w3.org/2000/svg" xmlns:xlink="http://www.w3.org/1999/xlink" version="1.1" x="0px" y="0px" viewBox="0 0 100 125" enable-background="new 0 0 100 100" xml:space="preserve"><g><g><path fill="none" d="M39.644,41.313c0-0.062-0.001-0.125-0.003-0.186c-0.001-0.043-0.004-0.086-0.007-0.129    c-0.003-0.056-0.007-0.113-0.011-0.167c-0.004-0.045-0.009-0.088-0.014-0.132c-0.005-0.05-0.011-0.099-0.017-0.147    c-0.007-0.046-0.014-0.09-0.021-0.135c-0.007-0.042-0.015-0.084-0.023-0.125c-0.009-0.046-0.019-0.092-0.029-0.136    c-0.008-0.035-0.017-0.069-0.026-0.103c-0.012-0.047-0.026-0.094-0.041-0.138c-0.008-0.027-0.017-0.052-0.026-0.078    c-0.017-0.048-0.034-0.095-0.053-0.139c-0.008-0.018-0.016-0.035-0.023-0.053c-0.022-0.048-0.044-0.094-0.069-0.137    c-0.006-0.01-0.012-0.02-0.017-0.029c-0.028-0.047-0.056-0.091-0.086-0.131c-0.002-0.004-0.005-0.007-0.007-0.01    c-0.104-0.136-0.223-0.233-0.355-0.283c0.027-0.454,0.043-0.913,0.042-1.38c-0.017-6.737-3.967-11.185-10.193-11.602    c-0.481-0.032-0.948-0.037-1.408-0.031c-0.459-0.006-0.925-0.001-1.407,0.031c-6.226,0.417-10.176,4.865-10.193,11.602    c-0.002,0.467,0.015,0.927,0.042,1.38c-0.132,0.05-0.251,0.146-0.354,0.283c-0.002,0.003-0.005,0.006-0.008,0.011    c-0.031,0.04-0.059,0.084-0.086,0.131c-0.006,0.01-0.012,0.02-0.017,0.03c-0.024,0.043-0.047,0.089-0.069,0.137    c-0.008,0.018-0.016,0.035-0.023,0.053c-0.019,0.044-0.036,0.091-0.053,0.139c-0.009,0.025-0.017,0.051-0.025,0.078    c-0.015,0.044-0.028,0.09-0.041,0.138c-0.009,0.033-0.018,0.067-0.026,0.103c-0.01,0.044-0.02,0.089-0.029,0.136    c-0.009,0.041-0.016,0.083-0.023,0.125c-0.007,0.045-0.015,0.089-0.021,0.135c-0.006,0.048-0.012,0.097-0.017,0.147    c-0.005,0.043-0.01,0.087-0.014,0.132c-0.004,0.055-0.008,0.111-0.011,0.167c-0.002,0.042-0.005,0.085-0.007,0.129    c-0.002,0.062-0.002,0.125-0.003,0.188c0,0.042-0.001,0.082-0.001,0.124c0,0.07,0.003,0.141,0.006,0.212    c0.001,0.037,0.001,0.075,0.004,0.112c0.004,0.086,0.011,0.175,0.019,0.263c0.002,0.024,0.003,0.047,0.006,0.071    c0.021,0.23,0.053,0.467,0.096,0.708c0.04,0.221,0.087,0.434,0.139,0.64c0.02,0.074,0.042,0.142,0.063,0.214    c0.037,0.126,0.071,0.253,0.112,0.372c0.032,0.092,0.067,0.177,0.101,0.265c0.035,0.09,0.068,0.183,0.105,0.267    c0.038,0.086,0.079,0.165,0.119,0.245c0.038,0.077,0.075,0.156,0.114,0.227c0.041,0.072,0.083,0.135,0.125,0.201    c0.042,0.067,0.084,0.136,0.129,0.196c0.041,0.056,0.083,0.104,0.125,0.153c0.047,0.056,0.095,0.113,0.143,0.161    c0.04,0.04,0.081,0.07,0.122,0.103c0.052,0.043,0.103,0.083,0.155,0.115c0.039,0.024,0.078,0.04,0.117,0.056    c0.035,0.016,0.07,0.041,0.105,0.051c0.927,2.509,2.396,4.953,4.208,6.762c1.079,1.078,2.283,1.93,3.569,2.442    c0.853,0.339,1.745,0.526,2.658,0.526c0.016,0,0.032-0.003,0.048-0.003c0.017,0,0.033,0.003,0.049,0.003    c0.913,0,1.806-0.188,2.658-0.526c1.286-0.513,2.491-1.364,3.569-2.442c1.813-1.809,3.282-4.252,4.208-6.762    c0.035-0.01,0.07-0.035,0.105-0.051c0.039-0.017,0.078-0.032,0.117-0.056c0.052-0.031,0.104-0.072,0.155-0.115    c0.041-0.033,0.082-0.063,0.122-0.103c0.048-0.048,0.096-0.105,0.144-0.161c0.042-0.049,0.083-0.096,0.125-0.152    c0.044-0.06,0.086-0.129,0.128-0.196c0.042-0.066,0.085-0.129,0.125-0.201c0.04-0.07,0.077-0.15,0.114-0.227    c0.04-0.08,0.081-0.158,0.119-0.245c0.037-0.084,0.07-0.177,0.104-0.267c0.034-0.087,0.07-0.173,0.102-0.265    c0.041-0.119,0.076-0.247,0.112-0.373c0.02-0.072,0.043-0.139,0.063-0.213c0.053-0.206,0.1-0.419,0.14-0.64    c0.043-0.24,0.075-0.477,0.096-0.708c0.002-0.024,0.003-0.047,0.005-0.071c0.008-0.088,0.015-0.177,0.019-0.263    c0.002-0.039,0.003-0.076,0.004-0.113c0.003-0.071,0.006-0.142,0.006-0.211C39.646,41.397,39.645,41.356,39.644,41.313z     M31.164,36.236c1.405,0.052,2.368,0.78,3.377,1.25c-0.027-0.367-0.255-0.739-0.341-1.035c0.448,0.329,0.8,0.756,1.102,1.141    c0.339,0.432,0.583,0.901,0.762,1.343c0.021,0.056,0.043,0.108,0.064,0.165c0.028,0.074,0.052,0.145,0.076,0.215    c0.021,0.061,0.041,0.124,0.062,0.186c0.166,0.541,0.228,0.972,0.242,1.109c0.001,0.011,0.002,0.023,0.002,0.035    c0.001,0,0.001,0,0.001,0c0.027-0.022,0.054-0.039,0.082-0.056c0.002,0.01,0.005,0.019,0.008,0.028c0,0.009,0,0.017,0,0.024    c0.005-0.001,0.005-0.001,0.008-0.002c0,0.001,0,0.001,0,0.002l0.009-0.009c0.073-0.057,0.147-0.1,0.222-0.124    c0.039-0.015,0.078-0.01,0.117-0.013c0.005,0,0.01-0.001,0.015-0.001c0.029-0.004,0.061-0.013,0.086-0.007h0.002    c0.036,0.005,0.073,0.019,0.105,0.032c0.347,0.164,0.546,0.814,0.53,1.652c-0.005,0.277-0.034,0.576-0.09,0.886    c-0.013,0.083-0.034,0.153-0.054,0.232c-0.183,0.839-0.519,1.527-0.876,1.832c-0.08,0.07-0.167,0.119-0.249,0.146    c-0.063,0.021-0.125,0.028-0.187,0.024c-0.046,0.007-0.091,0.007-0.136-0.001c-0.055-0.009-0.107-0.034-0.157-0.066    c-0.866,2.659-2.497,5.301-4.552,6.911c-0.307,0.236-0.622,0.454-0.944,0.644c-0.983,0.578-2.042,0.918-3.144,0.918    c-0.017,0-0.034-0.002-0.051-0.003c-0.017,0.001-0.033,0.003-0.05,0.003c-1.103,0-2.162-0.34-3.145-0.918    c-0.322-0.189-0.637-0.407-0.944-0.644c-2.055-1.61-3.686-4.252-4.553-6.911c-0.05,0.032-0.102,0.057-0.157,0.066    c-0.045,0.008-0.09,0.008-0.136,0.001c-0.062,0.004-0.124-0.003-0.187-0.024c-0.081-0.027-0.168-0.076-0.249-0.146    c-0.358-0.305-0.694-0.992-0.876-1.832c-0.02-0.079-0.041-0.15-0.054-0.232c-0.057-0.31-0.084-0.609-0.09-0.886    c-0.017-0.837,0.183-1.488,0.53-1.652c0.032-0.014,0.069-0.027,0.105-0.032h0.002c0.026-0.005,0.057,0.003,0.086,0.007    c0.002-0.001,0.004-0.003,0.006-0.003c0.121-0.021,0.248,0.017,0.373,0.097c0.104-0.392,0.214-0.749,0.327-1.087    c0.021-0.063,0.041-0.127,0.063-0.188c0.023-0.07,0.048-0.14,0.075-0.213c0.021-0.058,0.044-0.11,0.065-0.167    c0.179-0.441,0.423-0.911,0.762-1.342c0.302-0.385,0.654-0.813,1.102-1.141c0.645-0.474,1.487-0.743,2.676-0.375    c0,0,0.189,0.067,0.506,0.158c0.72,0.206,2.138,0.532,3.763,0.497"/><path fill="none" d="M49.345,65.74c-0.785-2.717-1.775-4.584-2.796-5.899c-1.982-2.561-4.066-2.973-4.955-3.144    c-0.109-0.019-0.2-0.037-0.274-0.055c-0.99-0.231-2.128-0.299-3.131-0.355c-0.807-0.048-1.577-0.09-2.204-0.216    c-0.729,1.93-4.312,3.332-8.725,3.332c-4.416,0-7.997-1.402-8.725-3.332c-0.631,0.126-1.401,0.17-2.208,0.217    c-1.003,0.056-2.14,0.123-3.129,0.354c-0.074,0.018-0.166,0.035-0.275,0.055c-0.838,0.163-2.744,0.528-4.624,2.723    c-1.133,1.322-2.256,3.308-3.131,6.315c-0.218,0.751-0.219,1.542-0.042,2.278c0.082,0.336,0.189,0.667,0.35,0.974    c1.938,3.669,12.511,4.978,21.756,4.978h0.052c9.247,0,19.813-1.309,21.755-4.978c0.188-0.353,0.3-0.74,0.382-1.137    C49.556,67.161,49.545,66.437,49.345,65.74z"/></g><g><path fill="none" d="M75.747,70.505H58.461V34.213h4.507c-0.299-0.553-0.47-1.185-0.47-1.856c0-0.53,0.114-1.03,0.306-1.491H58.45    c-1.995,0-3.613,1.618-3.613,3.613v35.759c0,1.996,1.618,3.613,3.613,3.613h20.175C77.471,72.933,76.495,71.798,75.747,70.505z"/><path fill="none" d="M81.261,34.213h4.508V52.6h0.001c1.265,0,2.481,0.215,3.622,0.598V34.479c0-1.995-1.617-3.613-3.613-3.613h-4.353    c0.191,0.461,0.305,0.961,0.305,1.491C81.73,33.028,81.561,33.66,81.261,34.213z"/><rect x="66.974" y="40.231" width="16.452" height="1.806"/><rect x="66.974" y="43.218" width="6.909" height="1.807"/><path fill="none" d="M60.804,45.145h4.78v-4.78h-4.78V45.145z M61.426,42.402c0.097-0.101,0.225-0.156,0.363-0.156    c0.133,0,0.259,0.052,0.354,0.147l0.479,0.48l1.663-1.33c0.089-0.072,0.2-0.111,0.313-0.111c0.158,0,0.304,0.073,0.401,0.2    c0.169,0.224,0.129,0.546-0.088,0.721l-2.001,1.599l-0.025,0.022l-0.012,0.005c-0.036,0.025-0.073,0.045-0.103,0.056l-0.03,0.012    l-0.012,0.003c-0.05,0.015-0.096,0.022-0.144,0.023c-0.034,0-0.068-0.005-0.102-0.012l-0.027-0.008l-0.005-0.001    c-0.023-0.006-0.049-0.015-0.082-0.03l-0.025-0.014l-0.004-0.002c-0.02-0.011-0.038-0.022-0.054-0.035    c-0.012-0.009-0.022-0.018-0.029-0.024l-0.019-0.014l-0.008-0.008l-0.797-0.799C61.238,42.931,61.233,42.605,61.426,42.402z"/><rect x="66.974" y="49.962" width="16.452" height="1.807"/><rect x="66.974" y="52.949" width="6.909" height="1.807"/><path fill="none" d="M60.804,54.876h4.78v-4.781h-4.78V54.876z M61.426,52.134c0.097-0.102,0.225-0.156,0.363-0.156    c0.133,0,0.259,0.052,0.354,0.147l0.479,0.48l1.663-1.33c0.088-0.071,0.2-0.11,0.313-0.11c0.158,0,0.304,0.072,0.401,0.199    c0.169,0.224,0.129,0.547-0.088,0.722l-2.018,1.613l-0.019,0.013l-0.003,0.001c-0.037,0.026-0.074,0.047-0.102,0.056l-0.029,0.011    l-0.011,0.003c-0.051,0.016-0.098,0.023-0.146,0.024c-0.033,0-0.066-0.005-0.098-0.01l-0.032-0.009l-0.008-0.003    c-0.023-0.006-0.046-0.015-0.067-0.024l-0.033-0.018l-0.007-0.004c-0.019-0.011-0.035-0.021-0.054-0.034    c-0.012-0.01-0.022-0.018-0.056-0.046l-0.798-0.8C61.238,52.661,61.234,52.336,61.426,52.134z"/><path fill="none" d="M66.974,61.379h7.572c0.165-0.624,0.377-1.227,0.636-1.807h-8.208V61.379z"/><rect x="66.974" y="62.56" width="6.909" height="1.807"/><path fill="none" d="M60.804,64.487h4.78v-4.781h-4.78V64.487z M61.426,61.744c0.097-0.101,0.225-0.156,0.363-0.156    c0.133,0,0.259,0.053,0.354,0.148l0.479,0.479l1.663-1.33c0.088-0.07,0.2-0.109,0.313-0.109c0.158,0,0.304,0.072,0.401,0.199    c0.169,0.224,0.129,0.546-0.088,0.721l-2.018,1.613l-0.019,0.014l-0.003,0.001c-0.037,0.026-0.074,0.047-0.102,0.056l-0.029,0.011    l-0.011,0.003c-0.051,0.016-0.098,0.023-0.146,0.024c-0.033,0-0.066-0.005-0.098-0.011l-0.032-0.009l-0.008-0.002    c-0.023-0.007-0.046-0.015-0.067-0.024l-0.033-0.018l-0.007-0.004c-0.019-0.011-0.035-0.021-0.054-0.034    c-0.012-0.01-0.022-0.019-0.056-0.047l-0.798-0.799C61.238,62.272,61.234,61.947,61.426,61.744z"/><path fill="none" d="M85.77,55.009c-5.099,0-9.232,4.243-9.232,9.478c0,5.235,4.134,9.479,9.232,9.479c5.098,0,9.23-4.243,9.23-9.479    C95,59.252,90.867,55.009,85.77,55.009z M91.281,63.319l-6.384,5.106l-0.063,0.047l-0.012,0.005    c-0.121,0.085-0.251,0.153-0.389,0.203c-0.024,0.009-0.047,0.017-0.093,0.03c-0.174,0.053-0.334,0.079-0.496,0.08    c-0.112,0-0.229-0.014-0.36-0.04c-0.031-0.008-0.063-0.017-0.112-0.032c-0.078-0.023-0.157-0.05-0.228-0.082    c-0.049-0.021-0.095-0.047-0.127-0.066c-0.068-0.038-0.135-0.08-0.183-0.117c-0.043-0.031-0.084-0.065-0.11-0.089    c-0.031-0.024-0.062-0.049-0.092-0.079l-2.52-2.527c-0.672-0.673-0.686-1.781-0.029-2.472c0.328-0.345,0.769-0.534,1.24-0.534    c0.457,0,0.887,0.18,1.211,0.505l1.438,1.441l5.173-4.138c0.303-0.243,0.682-0.378,1.067-0.378c0.54,0,1.037,0.249,1.367,0.684    C92.156,61.626,92.021,62.727,91.281,63.319z"/><path fill="none" d="M64.306,32.357c0,1.163,0.945,2.109,2.106,2.109h11.403c1.163,0,2.108-0.946,2.108-2.109c0-1.163-0.945-2.109-2.108-2.109    h-0.722c-0.036-0.214-0.082-0.425-0.144-0.63c-0.048-0.154-0.104-0.305-0.166-0.453c-0.758-1.834-2.564-3.129-4.67-3.129    s-3.911,1.295-4.67,3.129c-0.062,0.148-0.117,0.298-0.165,0.453c-0.063,0.205-0.108,0.416-0.144,0.63h-0.724    C65.251,30.248,64.306,31.194,64.306,32.357z M69.642,29.617c0.099-0.163,0.216-0.312,0.341-0.453    c0.526-0.587,1.282-0.963,2.132-0.963c0.851,0,1.605,0.376,2.133,0.963c0.126,0.141,0.242,0.29,0.34,0.453    c0.117,0.196,0.208,0.408,0.277,0.63h-5.499C69.434,30.025,69.524,29.813,69.642,29.617z"/></g></g></svg>