<svg xmlns="http://www.w3.org/2000/svg" xmlns:xlink="http://www.w3.org/1999/xlink" version="1.1" x="0px" y="0px" viewBox="0 0 100 100" enable-background="new 0 0 100 100" xml:space="preserve"><path fill="none" d="M47.897,52.956c9.165,0,16.714-10.123,17.69-23.134c0.123-0.839,0.189-1.7,0.201-2.572l-2.861,3.287  c1.578-3.496-4.045-12.393-4.045-12.393c-9.473,6.852-23.56,0-23.56,0c-4.252,1.678-2.238,13.633-2.238,13.633  c-1.06-0.74-2.035-1.125-2.828-1.325C31.427,43.158,38.878,52.956,47.897,52.956z"/><path fill="#000000" d="M70.223,94.908c-1.621-2.69-2.555-5.843-2.555-9.213c0-9.874,8.002-17.877,17.875-17.877  c0.113,0,0.225,0.007,0.338,0.009c-4.117-7.73-11.924-13.197-21.074-14.032c-0.107,4.856-7.305,8.775-16.172,8.775  s-16.064-3.919-16.171-8.775C18.901,55.034,8.277,66.437,8.277,80.322C8.277,95.034,20.204,95,34.917,95"/><path fill="#000000" d="M27.745,29.715c0.015,0.192,0.031,0.384,0.048,0.575c1.286,14.546,9.796,25.784,20.105,25.784  c10.441,0,19.037-11.531,20.15-26.351c0.154-1.064,0.234-2.155,0.234-3.264s-0.08-2.2-0.234-3.265C66.555,12.892,58.102,5,47.897,5  C37.69,5,29.235,12.897,27.745,23.202c-0.154,1.062-0.233,2.15-0.233,3.256c0,0.45,0.017,0.895,0.043,1.338  C27.592,28.444,27.654,29.084,27.745,29.715z M35.324,18.145c0,0,14.087,6.852,23.559,0c0,0,5.623,8.896,4.045,12.392l2.861-3.287  c-0.012,0.873-0.078,1.733-0.199,2.572c-0.979,13.01-8.527,23.133-17.692,23.133c-9.019,0-16.471-9.798-17.64-22.503  c0.793,0.199,1.768,0.583,2.828,1.324C33.085,31.777,31.072,19.822,35.324,18.145z"/><polygon fill="#000000" points="88.926,86.766 87.855,85.696 91.723,81.829 89.412,79.518 85.545,83.385 81.678,79.518   79.367,81.829 83.232,85.696 80.072,88.856 79.367,89.563 81.68,91.874 84.822,88.731 85.545,88.008 85.918,88.381 89.41,91.874   91.723,89.563 "/></svg>
