<svg xmlns="http://www.w3.org/2000/svg" xmlns:xlink="http://www.w3.org/1999/xlink" version="1.1" x="0px" y="0px" viewBox="0 0 100 100" enable-background="new 0 0 100 100" xml:space="preserve"><g><path fill="none" d="M48.164,52.956c9.166,0,16.714-10.123,17.692-23.133c0.121-0.839,0.188-1.7,0.2-2.572l-2.861,3.287   c1.578-3.496-4.045-12.392-4.045-12.392c-9.474,6.852-23.56,0-23.56,0c-4.252,1.677-2.239,13.632-2.238,13.632   c-1.061-0.741-2.035-1.125-2.828-1.324C31.693,43.158,39.146,52.956,48.164,52.956z"/><rect x="80.064" y="81.826" transform="matrix(0.7071 -0.7071 0.7071 0.7071 -33.8087 85.2985)" fill="#000000" width="11.992" height="3.268"/><polygon fill="#000000" points="78.858,90.661 82.059,89.772 79.748,87.462  "/><path fill="#000000" d="M85.811,67.818c0.113,0,0.225,0.007,0.337,0.009c-4.116-7.73-11.924-13.197-21.074-14.032   c-0.107,4.856-7.305,8.775-16.172,8.775s-16.064-3.919-16.172-8.775C19.167,55.034,8.544,66.437,8.544,80.322   C8.544,95.034,20.471,95,35.184,95l35.306-0.092c-1.621-2.69-2.555-5.843-2.555-9.213C67.935,75.821,75.938,67.818,85.811,67.818z"/><path fill="#000000" d="M28.012,29.715c0.015,0.192,0.03,0.384,0.048,0.575c1.286,14.546,9.796,25.784,20.105,25.784   c10.441,0,19.038-11.531,20.151-26.351c0.154-1.064,0.234-2.155,0.234-3.264s-0.081-2.2-0.234-3.265   C66.821,12.892,58.368,5,48.164,5c-10.208,0-18.662,7.897-20.152,18.202c-0.153,1.062-0.233,2.15-0.233,3.256   c0,0.45,0.018,0.895,0.043,1.338C27.858,28.444,27.921,29.084,28.012,29.715z M35.591,18.145c0,0,14.086,6.852,23.56,0   c0,0,5.623,8.896,4.045,12.392l2.861-3.287c-0.013,0.873-0.079,1.733-0.2,2.572c-0.979,13.01-8.526,23.133-17.692,23.133   c-9.019,0-16.471-9.798-17.64-22.503c0.793,0.199,1.768,0.583,2.828,1.324C33.352,31.777,31.339,19.822,35.591,18.145z"/></g></svg>
