<svg xmlns="http://www.w3.org/2000/svg" xmlns:xlink="http://www.w3.org/1999/xlink" version="1.1" x="0px" y="0px" viewBox="0 0 100 100" enable-background="new 0 0 100 100" xml:space="preserve"><g><path fill="none" d="M46.621,52.956c9.166,0,16.714-10.123,17.692-23.133c0.121-0.839,0.188-1.7,0.2-2.572l-2.861,3.287   c1.578-3.496-4.045-12.392-4.045-12.392c-9.474,6.852-23.56,0-23.56,0c-4.252,1.677-2.239,13.632-2.238,13.632   c-1.061-0.741-2.035-1.125-2.828-1.324C30.15,43.158,37.603,52.956,46.621,52.956z"/><path fill="none" d="M84.133,80.021c-0.791-0.791-1.843-1.227-2.962-1.227S79,79.23,78.209,80.021   c-1.634,1.633-1.634,4.291-0.001,5.925c0.792,0.791,1.844,1.227,2.963,1.227s2.171-0.436,2.962-1.227   C85.766,84.313,85.766,81.654,84.133,80.021z"/><path fill="#000000" d="M84.268,67.818c0.113,0,0.225,0.007,0.337,0.009c-4.116-7.73-11.924-13.197-21.074-14.032   c-0.107,4.856-7.305,8.775-16.172,8.775s-16.064-3.919-16.172-8.775C17.624,55.034,7.001,66.437,7.001,80.322   C7.001,95.034,18.928,95,33.641,95l35.306-0.092c-1.621-2.69-2.555-5.843-2.555-9.213C66.392,75.821,74.395,67.818,84.268,67.818z"/><path fill="#000000" d="M26.469,29.715c0.015,0.192,0.03,0.384,0.048,0.575c1.286,14.546,9.796,25.784,20.105,25.784   c10.441,0,19.038-11.531,20.151-26.351c0.154-1.064,0.234-2.155,0.234-3.264s-0.081-2.2-0.234-3.265   C65.278,12.892,56.825,5,46.621,5c-10.208,0-18.662,7.897-20.152,18.202c-0.153,1.062-0.233,2.15-0.233,3.256   c0,0.45,0.018,0.895,0.043,1.338C26.315,28.444,26.378,29.084,26.469,29.715z M34.048,18.145c0,0,14.086,6.852,23.56,0   c0,0,5.623,8.896,4.045,12.392l2.861-3.287c-0.013,0.873-0.079,1.733-0.2,2.572c-0.979,13.01-8.526,23.133-17.692,23.133   c-9.019,0-16.471-9.798-17.64-22.503c0.793,0.199,1.768,0.583,2.828,1.324C31.809,31.777,29.796,19.822,34.048,18.145z"/><path fill="#000000" d="M92.999,92.501l-5.728-5.728c1.723-2.772,1.387-6.469-1.018-8.873c-1.357-1.358-3.163-2.105-5.083-2.105   s-3.726,0.747-5.083,2.105c-2.804,2.802-2.804,7.363-0.001,10.167c1.358,1.358,3.164,2.105,5.084,2.105   c1.362,0,2.663-0.383,3.791-1.087l5.727,5.727L92.999,92.501z M78.208,85.946c-1.633-1.634-1.633-4.292,0.001-5.925   c0.791-0.791,1.843-1.227,2.962-1.227s2.171,0.436,2.962,1.227c1.633,1.633,1.633,4.291,0,5.925   c-0.791,0.791-1.843,1.227-2.962,1.227S79,86.737,78.208,85.946z"/></g></svg>
