<svg xmlns="http://www.w3.org/2000/svg" xmlns:xlink="http://www.w3.org/1999/xlink" version="1.1" x="0px" y="0px" viewBox="0 0 100 100" enable-background="new 0 0 100 100" xml:space="preserve"><g><path fill="none" d="M32.344,40.745c1.334,3.11,3.106,5.78,5.191,7.822c1.088,1.066,2.262,1.961,3.503,2.66   c1.985,1.117,4.142,1.729,6.397,1.729c0.287,0,0.571-0.01,0.854-0.029c0.566-0.039,1.125-0.117,1.677-0.231   c7.861-1.636,14.063-10.779,15.107-22.3c0.018-0.191,0.038-0.38,0.053-0.573c0.121-0.839,0.188-1.7,0.201-2.572l-0.002,0.002   l-2.859,3.284c0.001-0.001,0.001-0.003,0.001-0.004c1.081-2.405-1.235-7.357-2.79-10.218c-0.707-1.301-1.256-2.17-1.256-2.17   c-9.474,6.852-23.561,0-23.561,0c-4.252,1.677-2.238,13.632-2.237,13.632c0,0,0,0-0.001,0c-0.265-0.185-0.524-0.348-0.777-0.491   c-0.759-0.43-1.456-0.684-2.05-0.833C30.14,34.195,31.03,37.684,32.344,40.745z"/><path fill="#FFFFFF" d="M85.082,67.818c0.113,0,0.225,0.007,0.336,0.009c-4.115-7.73-11.924-13.197-21.074-14.032   c-0.107,4.856-7.305,8.775-16.171,8.775c-8.867,0-16.064-3.919-16.172-8.775C18.438,55.034,7.814,66.437,7.814,80.322   C7.814,95.034,19.742,95,34.455,95l35.305-0.092c-1.621-2.69-2.555-5.843-2.555-9.213C67.205,75.821,75.209,67.818,85.082,67.818z"/><path fill="#FFFFFF" d="M27.283,29.715c0.015,0.192,0.03,0.384,0.048,0.575c1.286,14.546,9.796,25.784,20.105,25.784   c10.44,0,19.038-11.531,20.151-26.351c0.154-1.064,0.234-2.155,0.234-3.264s-0.082-2.2-0.234-3.265   C66.092,12.892,57.639,5,47.436,5c-10.208,0-18.662,7.897-20.152,18.202c-0.154,1.062-0.233,2.15-0.233,3.256   c0,0.45,0.017,0.895,0.043,1.338C27.13,28.444,27.192,29.084,27.283,29.715z M32.623,31.777   C32.624,31.777,32.624,31.777,32.623,31.777c0,0-2.014-11.955,2.238-13.632c0,0,14.087,6.852,23.561,0c0,0,0.549,0.869,1.256,2.17   c1.555,2.861,3.871,7.813,2.79,10.218c0,0.001,0,0.002-0.001,0.004l2.859-3.284l0.002-0.002c-0.014,0.873-0.08,1.733-0.201,2.572   c-0.015,0.192-0.035,0.382-0.053,0.573c-1.044,11.521-7.246,20.664-15.107,22.3c-0.551,0.114-1.11,0.192-1.677,0.231   c-0.283,0.02-0.568,0.029-0.854,0.029c-2.255,0-4.412-0.612-6.397-1.729c-1.241-0.698-2.415-1.593-3.503-2.66   c-2.085-2.042-3.857-4.711-5.191-7.822c-1.314-3.062-2.204-6.55-2.548-10.292c0.595,0.149,1.292,0.403,2.05,0.833   C32.099,31.429,32.358,31.592,32.623,31.777z"/><path fill="#FFFFFF" stroke="#010101" stroke-width="0" stroke-linecap="round" stroke-linejoin="round" d="M49.967,52.695   c-0.551,0.114-1.11,0.192-1.677,0.231"/><polygon fill="#FFFFFF" points="88.229,84.062 86.717,84.062 86.717,78.593 83.447,78.593 83.447,84.062 77.979,84.062    77.979,87.33 83.447,87.33 83.447,91.8 83.447,92.798 86.717,92.798 86.717,88.353 86.717,87.33 87.244,87.33 92.186,87.33    92.186,84.062  "/></g></svg>
