<svg xmlns="http://www.w3.org/2000/svg" xmlns:xlink="http://www.w3.org/1999/xlink" version="1.1" x="0px" y="0px" viewBox="0 0 100 100" style="enable-background:new 0 0 100 100;" xml:space="preserve"><path fill="#FFFFFF" d="M82.5,5h-65c-6.6,0-12,5.4-12,12v66c0,6.6,5.4,12,12,12h65c6.6,0,12-5.4,12-12V17C94.5,10.4,89.1,5,82.5,5z M88.5,17v6h-23  V11h17C85.8,11,88.5,13.7,88.5,17z M38.5,23V11h23v12H38.5z M61.5,27v62h-23V27H61.5z M17.5,11h17v12h-23v-6  C11.5,13.7,14.2,11,17.5,11z M11.5,83V27h23v62h-17C14.2,89,11.5,86.3,11.5,83z M82.5,89h-17V27h23v56C88.5,86.3,85.8,89,82.5,89z   M15.5,40c0-1.1,0.9-2,2-2h11c1.1,0,2,0.9,2,2s-0.9,2-2,2h-11C16.4,42,15.5,41.1,15.5,40z M30.5,52c0,1.1-0.9,2-2,2h-11  c-1.1,0-2-0.9-2-2s0.9-2,2-2h11C29.6,50,30.5,50.9,30.5,52z M30.5,64c0,1.1-0.9,2-2,2h-11c-1.1,0-2-0.9-2-2s0.9-2,2-2h11  C29.6,62,30.5,62.9,30.5,64z M30.5,76c0,1.1-0.9,2-2,2h-11c-1.1,0-2-0.9-2-2s0.9-2,2-2h11C29.6,74,30.5,74.9,30.5,76z M42.5,40  c0-1.1,0.9-2,2-2h11c1.1,0,2,0.9,2,2s-0.9,2-2,2h-11C43.4,42,42.5,41.1,42.5,40z M42.5,52c0-1.1,0.9-2,2-2h11c1.1,0,2,0.9,2,2  s-0.9,2-2,2h-11C43.4,54,42.5,53.1,42.5,52z M42.5,64c0-1.1,0.9-2,2-2h11c1.1,0,2,0.9,2,2s-0.9,2-2,2h-11C43.4,66,42.5,65.1,42.5,64  z M57.5,76c0,1.1-0.9,2-2,2h-11c-1.1,0-2-0.9-2-2s0.9-2,2-2h11C56.6,74,57.5,74.9,57.5,76z M84.5,40c0,1.1-0.9,2-2,2h-11  c-1.1,0-2-0.9-2-2s0.9-2,2-2h11C83.6,38,84.5,38.9,84.5,40z M84.5,52c0,1.1-0.9,2-2,2h-11c-1.1,0-2-0.9-2-2s0.9-2,2-2h11  C83.6,50,84.5,50.9,84.5,52z M84.5,64c0,1.1-0.9,2-2,2h-11c-1.1,0-2-0.9-2-2s0.9-2,2-2h11C83.6,62,84.5,62.9,84.5,64z M84.5,76  c0,1.1-0.9,2-2,2h-11c-1.1,0-2-0.9-2-2s0.9-2,2-2h11C83.6,74,84.5,74.9,84.5,76z"/></svg>
