<svg xmlns="http://www.w3.org/2000/svg" xmlns:xlink="http://www.w3.org/1999/xlink" version="1.1" x="0px" y="0px" viewBox="0 0 100 100" enable-background="new 0 0 100 100" xml:space="preserve"><g><path fill="none" d="M79.664,51.123c3.427,0,6.258-3.722,6.702-8.55c-0.3,0.075-0.671,0.222-1.074,0.503   c0,0,0.766-4.543-0.851-5.181c0,0-2.229,1.083-4.777,1.152c-2.549-0.07-4.778-1.152-4.778-1.152   c-1.615,0.637-0.851,5.18-0.851,5.181c-0.402-0.281-0.772-0.428-1.074-0.503C73.405,47.401,76.236,51.123,79.664,51.123z"/><path fill="none" d="M50,51.444c4.406,0,8.046-4.786,8.617-10.994c-0.388,0.097-0.862,0.286-1.382,0.647   c0,0,0.985-5.841-1.092-6.661c0,0-2.867,1.392-6.144,1.481c-3.276-0.09-6.143-1.481-6.143-1.481   c-2.077,0.82-1.093,6.66-1.093,6.661c-0.519-0.361-0.995-0.55-1.382-0.647C41.954,46.658,45.594,51.444,50,51.444z"/><path fill="none" d="M20.336,51.123c3.428,0,6.259-3.722,6.703-8.55c-0.301,0.075-0.671,0.222-1.075,0.503   c0,0,0.766-4.543-0.85-5.181c0,0-2.229,1.083-4.778,1.152c-2.549-0.07-4.778-1.152-4.778-1.152c-1.616,0.637-0.85,5.18-0.85,5.181   c-0.403-0.281-0.774-0.428-1.075-0.503C14.078,47.401,16.908,51.123,20.336,51.123z"/><path fill="#FFFFFF" d="M32.626,55.025c0.117-0.127,0.237-0.249,0.357-0.371c-1.652-1.787-3.938-2.979-6.503-3.213   c-0.041,1.846-2.776,3.335-6.145,3.335s-6.104-1.489-6.144-3.335C9.037,51.913,5,56.246,5,61.522C5,67.113,9.533,67.1,15.123,67.1   h10.426c1.221,0,2.392,0,3.476-0.058c-0.135-0.688-0.208-1.429-0.208-2.228C28.817,61.179,30.17,57.702,32.626,55.025z"/><path fill="#FFFFFF" d="M12.679,42.292c0.005,0.073,0.011,0.146,0.018,0.218c0.488,5.527,3.722,9.797,7.639,9.797s7.151-4.271,7.64-9.797   c0.006-0.073,0.012-0.146,0.018-0.218c0.035-0.24,0.058-0.483,0.072-0.729c0.01-0.168,0.016-0.337,0.016-0.508   c0-0.42-0.03-0.834-0.088-1.237c-0.566-3.917-3.779-6.917-7.658-6.917s-7.092,3-7.657,6.917c-0.059,0.403-0.089,0.816-0.089,1.237   c0,0.171,0.007,0.34,0.016,0.508C12.62,41.809,12.643,42.052,12.679,42.292z M15.558,37.896c0,0,2.229,1.083,4.778,1.152   c2.549-0.07,4.778-1.152,4.778-1.152c1.616,0.637,0.85,5.18,0.85,5.181c0.404-0.281,0.774-0.428,1.075-0.503   c-0.444,4.828-3.275,8.55-6.703,8.55s-6.258-3.722-6.703-8.55c0.301,0.075,0.671,0.222,1.075,0.503   C14.708,43.076,13.942,38.533,15.558,37.896z"/><path fill="#FFFFFF" d="M85.809,51.441c-0.04,1.846-2.776,3.335-6.145,3.335c-3.369,0-6.104-1.489-6.145-3.335   c-2.564,0.234-4.851,1.426-6.502,3.213c0.12,0.122,0.24,0.244,0.356,0.371c2.456,2.677,3.81,6.153,3.81,9.789   c0,0.799-0.072,1.54-0.207,2.228c1.084,0.058,2.253,0.058,3.475,0.058h10.426C90.468,67.1,95,67.113,95,61.522   C95,56.246,90.964,51.913,85.809,51.441z"/><path fill="#FFFFFF" d="M72.007,42.292c0.005,0.073,0.011,0.146,0.018,0.218c0.489,5.527,3.723,9.797,7.64,9.797c3.916,0,7.15-4.271,7.64-9.797   c0.007-0.073,0.012-0.146,0.018-0.218c0.035-0.24,0.059-0.483,0.073-0.729c0.009-0.168,0.016-0.337,0.016-0.508   c0-0.42-0.03-0.834-0.089-1.237c-0.565-3.917-3.779-6.917-7.657-6.917c-3.879,0-7.092,3-7.657,6.917   c-0.06,0.403-0.089,0.816-0.089,1.237c0,0.171,0.007,0.34,0.017,0.508C71.948,41.809,71.972,42.052,72.007,42.292z M74.886,37.896   c0,0,2.229,1.083,4.778,1.152c2.549-0.07,4.777-1.152,4.777-1.152c1.616,0.637,0.851,5.18,0.851,5.181   c0.403-0.281,0.774-0.428,1.074-0.503c-0.444,4.828-3.275,8.55-6.702,8.55c-3.428,0-6.259-3.722-6.703-8.55   c0.302,0.075,0.672,0.222,1.074,0.503C74.035,43.076,73.271,38.533,74.886,37.896z"/><path fill="#FFFFFF" d="M40.155,40.09c0.006,0.094,0.015,0.187,0.024,0.28c0.628,7.106,4.785,12.597,9.821,12.597c5.035,0,9.193-5.49,9.821-12.597   c0.009-0.093,0.017-0.187,0.024-0.28c0.045-0.309,0.074-0.621,0.092-0.937c0.013-0.217,0.021-0.434,0.021-0.654   c0-0.541-0.039-1.072-0.113-1.591c-0.729-5.035-4.859-8.893-9.846-8.893s-9.117,3.858-9.845,8.893   c-0.076,0.519-0.114,1.05-0.114,1.591c0,0.22,0.009,0.437,0.02,0.654C40.08,39.469,40.11,39.781,40.155,40.09z M43.857,34.437   c0,0,2.867,1.392,6.143,1.481c3.276-0.09,6.144-1.481,6.144-1.481c2.077,0.82,1.092,6.66,1.092,6.661   c0.52-0.361,0.994-0.55,1.382-0.647C58.046,46.658,54.406,51.444,50,51.444s-8.046-4.786-8.618-10.994   c0.387,0.097,0.863,0.286,1.382,0.647C42.764,41.097,41.78,35.257,43.857,34.437z"/><path fill="#FFFFFF" d="M57.899,51.854c-0.051,2.373-3.568,4.288-7.899,4.288c-4.332,0-7.848-1.915-7.9-4.288   c-6.626,0.604-11.817,6.176-11.817,12.96c0,7.151,5.77,7.17,12.907,7.17c0.037,0,0.072,0,0.108,0h13.404c0.036,0,0.072,0,0.109,0   c7.138,0,12.906-0.018,12.906-7.17C69.718,58.03,64.527,52.459,57.899,51.854z"/></g></svg>